<svg xmlns="http://www.w3.org/2000/svg" width="34" height="34" viewBox="0 0 34 34" fill="none">
	<g clip-path="url(#clip0_574_1556)">
		<path d="M16.9952 33.7296C26.2374 33.7296 33.7296 26.2374 33.7296 16.9952C33.7296 7.75308 26.2374 0.260841 16.9952 0.260841C7.7531 0.260841 0.260864 7.75308 0.260864 16.9952C0.260864 26.2374 7.7531 33.7296 16.9952 33.7296Z" fill="url(#paint0_linear_574_1556)">
		</path>
		<path d="M18.7795 20.73C18.7795 20.164 18.6397 19.7199 18.3604 19.3972C18.0808 19.0747 17.5899 18.7702 16.8878 18.4838C16.1853 18.1975 15.5372 17.9071 14.9425 17.6133C14.3479 17.3195 13.8355 16.9789 13.4056 16.5921C12.9757 16.2054 12.6458 15.7572 12.4168 15.2481C12.1873 14.7398 12.0728 14.1236 12.0728 13.3996C12.0728 12.1887 12.4811 11.191 13.2981 10.4063C14.1147 9.62168 15.204 9.16502 16.5654 9.03598V6.76865H18.2745V9.07949C19.5854 9.27323 20.6155 9.81245 21.3644 10.6971C22.113 11.5822 22.4875 12.7053 22.4875 14.0663H18.8547C18.8547 13.3215 18.7111 12.748 18.4244 12.3468C18.1381 11.9455 17.7294 11.7451 17.1994 11.7451C16.7264 11.7451 16.3594 11.8938 16.0976 12.191C15.8361 12.4885 15.7052 12.8986 15.7052 13.4215C15.7052 13.9518 15.8559 14.3728 16.1567 14.6844C16.4575 14.996 16.9414 15.2935 17.6078 15.5765C18.2742 15.8595 18.903 16.1533 19.4939 16.4579C20.0848 16.7624 20.5954 17.1079 21.0257 17.495C21.4555 17.8818 21.7921 18.3336 22.0357 18.8494C22.2793 19.3652 22.4012 19.9851 22.4012 20.7084C22.4012 21.9337 22.0126 22.9333 21.235 23.7072C20.4574 24.4811 19.3991 24.9325 18.0588 25.0612V27.2218H16.3501V25.0508C14.7878 24.8857 13.5896 24.3505 12.7548 23.4439C11.9199 22.5376 11.5027 21.3428 11.5027 19.8598H15.1247C15.1247 20.6768 15.3055 21.2986 15.6673 21.7243C16.0291 22.1509 16.5435 22.364 17.2099 22.364C17.697 22.364 18.0804 22.2189 18.3601 21.9285C18.6393 21.6381 18.7795 21.2391 18.7795 20.73Z" fill="white">
		</path>
	</g>
	<defs>
		<linearGradient id="paint0_linear_574_1556" x1="16.9952" y1="31.7914" x2="16.9952" y2="1.8454" gradientUnits="userSpaceOnUse">
			<stop stop-color="#2161AC">
			</stop>
			<stop offset="1" stop-color="#2B7FE2">
			</stop>
		</linearGradient>
		<clipPath id="clip0_574_1556">
			<rect width="34" height="34" fill="white">
			</rect>
		</clipPath>
	</defs>
</svg>
