<?xml version="1.0" encoding="utf-8"?>
<!-- Generator: Adobe Illustrator 28.3.0, SVG Export Plug-In . SVG Version: 6.00 Build 0)  -->
<svg version="1.1" id="Layer_1" xmlns="http://www.w3.org/2000/svg" xmlns:xlink="http://www.w3.org/1999/xlink" x="0px" y="0px"
	 viewBox="0 0 128.3 128.3" style="enable-background:new 0 0 128.3 128.3;" xml:space="preserve">
<style type="text/css">
	.st0{fill:#FFFFFF;}
</style>
<g>
	<path class="st0" d="M108.4,65c-2.7,0-5.3,0-8,0c-0.8,0-1-0.2-0.9-1c0.1-1.1,0-2.1,0-3.2c0-0.5,0.1-0.7,0.7-0.7
		c5.6,0,11.1,0,16.6,0c0.5,0,0.7,0.2,0.7,0.7c0,1.1,0,2.2,0,3.4c0,0.7-0.2,0.8-0.8,0.8C113.9,65,111.2,65,108.4,65
		C108.4,65,108.4,65,108.4,65z"/>
	<path class="st0" d="M103.1,76.7L103.1,76.7L103.1,76.7c-0.1-0.4-0.2-0.8-0.3-1.2l0,0c-0.3-1-0.2-2.1-1-2.9l0,0
		c-0.3-1.1-0.9-2-1.7-2.7c-0.2-0.5-0.6-0.9-1-1.2l0,0c-1.7-1.8-3.7-3.1-6.1-3.9l0,0c-0.3-0.1-0.6-0.2-0.9-0.4
		c-0.7-0.5-1.6-0.7-2.4-0.9l0,0c-2-0.4-4-1.1-6.2-1.3c0.4-0.3,0.7-0.3,0.9-0.4c1.7-0.5,3.4-0.9,4.9-1.9l0,0c1.1-0.4,2-1,2.9-1.7
		c2.5-2,4.4-4.4,5.2-7.6l0,0l0,0l0,0l0,0l0,0c0-0.1,0.1-0.1,0.1-0.2c0.7-2,0.9-4,0.6-6l0,0c-0.1-3.6-1.5-6.6-4.1-9.1
		c-2.6-2.5-5.8-4-9.3-4.9c-7.2-1.9-14.5-2-21.8-1.8c-0.5,0-0.6,0.3-0.6,0.7c0,1.2,0,2.4,0,3.5c0,0.5,0.2,0.7,0.7,0.7
		c0.8,0,1.5,0,2.2,0.2c2.7,0.3,5.2,1,7.5,2.5c2.6,1.8,4,4.3,4.8,7.3c0.7,3.8,0.4,7.4-1.4,10.9c-0.4,0.5-0.8,1-1,1.5l0,0l0,0
		c-0.5,0.4-1,0.8-1.4,1.4c-1.8,1.3-3.9,2.1-6,2.6c-1.6,0.1-3.2,0.3-4.8,0.3c-0.4,0-0.6,0.2-0.5,0.6c0,0.8,0,1.5,0,2.2c0,2,0,2,2,2
		c5.6,0.1,10.8,1.1,15.2,4.9c0.8,1.1,1.7,2.1,2.4,3.3c0.3,0.8,0.6,1.5,0.9,2.2l0,0l0,0c0.1,0.8,0.2,1.5,0.5,2.2l0,0v0l0,0l0,0
		c0.2,3.2,0.1,6.5-1.4,9.5c-0.4,0.8-1,1.5-1.5,2.2c-0.3,0.4-0.8,0.6-0.9,1.2c-1.1,0.7-2.2,1.6-3.4,2.2c-1.5,0.7-3.1,1.1-4.6,1.6
		c-0.4,0.1-0.8,0.1-1.2,0.2c-2.4,0.4-4.8,0.7-7.3,0.7c-0.5,0-0.9,0-0.8,0.7c0,1.2,0,2.3,0,3.4c0,0.5,0.2,0.7,0.7,0.6l0,0
		c6.5,0.2,12.9,0.1,19.3-1c2.8-0.5,5.6-1.1,8.3-2.2l0,0l0,0c0.6-0.1,1.1-0.3,1.6-0.6l0,0c0.8-0.5,1.7-0.9,2.6-1.4
		c0.4-0.1,0.8-0.3,1-0.7l0,0l0,0c0.7-0.3,1.3-0.8,1.7-1.4l0,0l0,0c0.2,0,0.4-0.2,0.5-0.3c1.4-1.3,2.5-2.8,3.3-4.6
		c0.1,0,0.2,0,0.2-0.1c0.4-1.1,0.8-2.2,1.2-3.4c0.4-1.3,0.3-2.7,0.6-4.1C103.6,79.1,103.5,77.9,103.1,76.7z"/>
	<path class="st0" d="M51.5,28.5L51.5,28.5c-0.3-0.2-0.6-0.1-0.8-0.1c-8.6,0-17.2,0-25.8,0c-1.4,0-2.8,0-4.1,0c-0.8,0-1.1,0.1-1,1
		c0.1,1.1,0,2.2,0,3.4c0,0.2-0.1,0.5,0.2,0.7l0,0c0.3,0.2,0.6,0.1,0.9,0.1c3.5,0,7.1,0,10.7,0.1l0.1,0l0.1,0c0,0,0,0,0,0
		c0,0,0,0,0,0l0,0l0,0c0,0,0,0,0,0c0,0-0.1,0-0.1,0c0,7.9,0,15.8,0,23.7c0,1,0.3,1.9-0.2,2.9l0,0c-2,0-4,0-6.1,0l0,0l0,0
		c-3.2-0.1-6.3,0-9.5,0c-0.1,0.1-0.2,0.1-0.3,0.1c0.1,0,0.2-0.1,0.3-0.1c-1.4,0-2.8,0-4.1,0c-0.6,0-0.7,0.2-0.7,0.8
		c0,1.1,0.1,2.2,0,3.3c0,0.7,0.2,0.8,0.8,0.8c1.9,0,3.9,0,5.8,0c4.3,0,8.7,0,13,0c0.7,0,1,0.2,0.9,0.9c0,0.8,0,1.7,0,2.5l0,0l0,0
		c0,0.1,0,0.3,0,0.4c0,7.7,0,15.3,0,23c0,0.7,0.1,1.4,0.1,2c0,0.4-0.1,0.7-0.6,0.8c-1,0-2,0.2-2.9,0.1c-2.5-0.2-5,0-7.5-0.1
		c-0.7,0-1,0.3-0.9,1c0,1.1,0.1,2.2,0,3.3c0,0.8,0.2,1,1,1c3.4,0,6.8,0,10.2,0c5.5,0,11,0,16.5,0l0,0l0,0c0.7,0,1.4,0,2.2,0
		c2.1,0,2.1,0,2.1-2.1c0-22.8,0-45.7,0-68.6C51.6,29,51.8,28.7,51.5,28.5z M31.4,33.4C31.4,33.4,31.4,33.4,31.4,33.4
		C31.4,33.4,31.4,33.4,31.4,33.4C31.4,33.4,31.4,33.4,31.4,33.4z M51.3,85.7L51.3,85.7C51.3,85.7,51.2,85.8,51.3,85.7
		C51.2,85.7,51.3,85.7,51.3,85.7C51.3,85.7,51.3,85.7,51.3,85.7L51.3,85.7z M22.4,64.8C22.4,64.8,22.4,64.8,22.4,64.8
		C22.4,64.8,22.4,64.8,22.4,64.8C22.4,64.8,22.4,64.8,22.4,64.8z M24.2,60.3C24.2,60.4,24.2,60.4,24.2,60.3
		C24.2,60.4,24.2,60.4,24.2,60.3L24.2,60.3L24.2,60.3C24.2,60.3,24.2,60.3,24.2,60.3z"/>
</g>
</svg>
