<svg width="210" height="40" viewBox="0 0 210 40" fill="none" xmlns="http://www.w3.org/2000/svg">
<path d="M184.098 20.1695C183.027 19.4628 181.846 18.9602 180.729 18.332C180.004 17.9236 179.232 17.5623 178.602 17.044C177.531 16.1645 177.752 14.4368 178.87 13.6829C180.476 12.6149 183.137 13.2116 183.421 15.3949C183.421 15.4419 183.468 15.4734 183.515 15.4734H185.941C186.004 15.4734 186.051 15.4263 186.035 15.3635C185.909 13.8556 185.326 12.5991 184.256 11.7981C183.232 11.0285 182.067 10.6201 180.822 10.6201C174.413 10.6201 173.83 17.3895 177.279 19.5257C177.673 19.7769 181.058 21.4732 182.256 22.2114C183.452 22.9495 183.83 24.3003 183.31 25.3683C182.838 26.3422 181.61 27.0175 180.382 26.939C179.042 26.8605 178.004 26.138 177.641 25.0071C177.578 24.803 177.547 24.4103 177.547 24.2375C177.547 24.1904 177.499 24.1432 177.452 24.1432H174.823C174.776 24.1432 174.729 24.1904 174.729 24.2375C174.729 26.138 175.201 27.1903 176.492 28.1485C177.704 29.0594 179.027 29.4363 180.398 29.4363C183.988 29.4363 185.846 27.4102 186.223 25.3055C186.554 23.248 185.941 21.3946 184.098 20.1695Z" fill="white"/>
<path d="M69.9171 10.9658H68.7519H67.4764C67.4291 10.9658 67.3976 10.9972 67.3818 11.0286L65.2246 18.1279C65.1931 18.2222 65.0672 18.2222 65.0356 18.1279L62.8783 11.0286C62.8626 10.9815 62.831 10.9658 62.7838 10.9658H61.5084H60.343H58.7684C58.7211 10.9658 58.6738 11.0129 58.6738 11.0601V29.1852C58.6738 29.2323 58.7211 29.2794 58.7684 29.2794H61.3981C61.4453 29.2794 61.4926 29.2323 61.4926 29.1852V15.4107C61.4926 15.3008 61.6501 15.2851 61.6816 15.3793L63.8546 22.5257L64.012 23.0283C64.0278 23.0754 64.0593 23.0912 64.1066 23.0912H66.1222C66.1693 23.0912 66.2009 23.0597 66.2166 23.0283L66.3741 22.5257L68.5472 15.3793C68.5787 15.2694 68.7361 15.3008 68.7361 15.4107V29.1852C68.7361 29.2323 68.7834 29.2794 68.8306 29.2794H71.4604C71.5075 29.2794 71.5548 29.2323 71.5548 29.1852V11.0601C71.5548 11.0129 71.5075 10.9658 71.4604 10.9658H69.9171Z" fill="white"/>
<path d="M143.834 10.9658C143.786 10.9658 143.755 10.9972 143.739 11.0286L141.583 18.1279C141.551 18.2222 141.425 18.2222 141.394 18.1279L139.236 11.0286C139.22 10.9815 139.189 10.9658 139.141 10.9658H135.141C135.094 10.9658 135.047 11.0129 135.047 11.0601V29.1852C135.047 29.2323 135.094 29.2794 135.141 29.2794H137.772C137.819 29.2794 137.866 29.2323 137.866 29.1852V15.4107C137.866 15.3008 138.024 15.2851 138.055 15.3793L140.227 22.5257L140.385 23.0283C140.401 23.0754 140.432 23.0912 140.48 23.0912H142.495C142.543 23.0912 142.574 23.0597 142.59 23.0283L142.747 22.5257L144.921 15.3793C144.952 15.2694 145.11 15.3008 145.11 15.4107V29.1852C145.11 29.2323 145.157 29.2794 145.204 29.2794H147.834C147.881 29.2794 147.928 29.2323 147.928 29.1852V11.0601C147.928 11.0129 147.881 10.9658 147.834 10.9658H143.834Z" fill="white"/>
<path d="M109.915 10.9658H105.018H102.388H97.491C97.4438 10.9658 97.3965 11.0129 97.3965 11.0601V13.3217C97.3965 13.3689 97.4438 13.416 97.491 13.416H102.294V29.1852C102.294 29.2323 102.341 29.2794 102.388 29.2794H105.018C105.065 29.2794 105.112 29.2323 105.112 29.1852V13.416H109.915C109.963 13.416 110.01 13.3689 110.01 13.3217V11.0601C110.01 11.0129 109.978 10.9658 109.915 10.9658Z" fill="white"/>
<path d="M125.427 29.2797H127.819C127.882 29.2797 127.93 29.2169 127.914 29.1541L122.97 10.9661C122.954 10.919 122.922 10.9033 122.875 10.9033H121.962H120.356H119.442C119.395 10.9033 119.364 10.9347 119.348 10.9661L114.403 29.1541C114.388 29.2169 114.435 29.2797 114.498 29.2797H116.891C116.939 29.2797 116.97 29.2483 116.986 29.2169L118.419 23.9238C118.435 23.8768 118.466 23.8611 118.513 23.8611H123.805C123.852 23.8611 123.884 23.8924 123.899 23.9238L125.332 29.2169C125.348 29.2483 125.395 29.2797 125.427 29.2797ZM119.143 21.2695L121.064 14.1859C121.096 14.0917 121.222 14.0917 121.253 14.1859L123.174 21.2695C123.19 21.3323 123.143 21.3951 123.08 21.3951H119.238C119.175 21.3951 119.128 21.3323 119.143 21.2695Z" fill="white"/>
<path d="M166.241 29.2797H168.634C168.697 29.2797 168.744 29.2169 168.728 29.1541L163.784 10.9661C163.768 10.919 163.737 10.9033 163.689 10.9033H162.777H161.171H160.257C160.209 10.9033 160.178 10.9347 160.162 10.9661L155.218 29.1541C155.202 29.2169 155.249 29.2797 155.312 29.2797H157.706C157.754 29.2797 157.785 29.2483 157.801 29.2169L159.234 23.9238C159.249 23.8768 159.281 23.8611 159.328 23.8611H164.619C164.666 23.8611 164.698 23.8924 164.714 23.9238L166.146 29.2169C166.162 29.2483 166.194 29.2797 166.241 29.2797ZM159.957 21.2695L161.879 14.1859C161.91 14.0917 162.036 14.0917 162.068 14.1859L163.989 21.2695C164.005 21.3323 163.957 21.3951 163.894 21.3951H160.052C159.989 21.3951 159.942 21.3323 159.957 21.2695Z" fill="white"/>
<path d="M82.2308 26.5936V20.9706C82.2308 20.9236 82.278 20.8765 82.3253 20.8765H89.3326C89.3799 20.8765 89.4271 20.8293 89.4271 20.7822V18.5205C89.4271 18.4734 89.3799 18.4263 89.3326 18.4263H82.3253C82.278 18.4263 82.2308 18.3791 82.2308 18.332V13.5259C82.2308 13.4788 82.278 13.4316 82.3253 13.4316H90.2932C90.3405 13.4316 90.3877 13.3845 90.3877 13.3374V11.0757C90.3877 11.0286 90.3405 10.9814 90.2932 10.9814H82.2308H79.5066C79.4594 10.9814 79.4121 11.0286 79.4121 11.0757V13.4316V18.4419V20.8922V26.7035V29.1851C79.4121 29.2322 79.4594 29.2794 79.5066 29.2794H82.2308H90.6239C90.6711 29.2794 90.7184 29.2322 90.7184 29.1851V26.7978C90.7184 26.7506 90.6711 26.7035 90.6239 26.7035H82.3096C82.2623 26.6879 82.2308 26.6563 82.2308 26.5936Z" fill="white"/>
<path d="M208.128 29.1223L199.027 19.7456C198.995 19.7142 198.995 19.6514 199.027 19.62L207.216 11.1385C207.279 11.0757 207.231 10.9814 207.153 10.9814H203.799C203.767 10.9814 203.751 10.9972 203.736 11.0129L196.791 18.2064C196.728 18.2692 196.634 18.222 196.634 18.1435V11.0757C196.634 11.0286 196.587 10.9814 196.539 10.9814H193.909C193.862 10.9814 193.814 11.0286 193.814 11.0757V29.2008C193.814 29.248 193.862 29.2951 193.909 29.2951H196.539C196.587 29.2951 196.634 29.248 196.634 29.2008V21.222C196.634 21.1435 196.744 21.0963 196.791 21.1591L204.664 29.2636C204.68 29.2794 204.711 29.2951 204.727 29.2951H208.081C208.144 29.2794 208.191 29.1694 208.128 29.1223Z" fill="white"/>
<path d="M40.7072 1.21191L24.7871 12.9917L27.7476 6.04948L40.7072 1.21191Z" fill="#E17726" stroke="#E17726" stroke-width="0.25" stroke-linecap="round" stroke-linejoin="round"/>
<path d="M3.98633 1.21191L19.7647 13.1016L16.946 6.04947L3.98633 1.21191Z" fill="#E27625" stroke="#E27625" stroke-width="0.25" stroke-linecap="round" stroke-linejoin="round"/>
<path d="M34.9742 28.5254L30.7383 34.9964L39.8085 37.4938L42.4068 28.6668L34.9742 28.5254Z" fill="#E27625" stroke="#E27625" stroke-width="0.25" stroke-linecap="round" stroke-linejoin="round"/>
<path d="M2.30078 28.6668L4.88325 37.4938L13.9377 34.9964L9.71755 28.5254L2.30078 28.6668Z" fill="#E27625" stroke="#E27625" stroke-width="0.25" stroke-linecap="round" stroke-linejoin="round"/>
<path d="M13.4491 17.5936L10.9297 21.3946L19.9054 21.8029L19.6062 12.1436L13.4491 17.5936Z" fill="#E27625" stroke="#E27625" stroke-width="0.25" stroke-linecap="round" stroke-linejoin="round"/>
<path d="M31.2432 17.5942L24.9918 12.0342L24.7871 21.8035L33.7627 21.3952L31.2432 17.5942Z" fill="#E27625" stroke="#E27625" stroke-width="0.25" stroke-linecap="round" stroke-linejoin="round"/>
<path d="M13.9375 34.9963L19.3701 32.3734L14.6934 28.7295L13.9375 34.9963Z" fill="#E27625" stroke="#E27625" stroke-width="0.25" stroke-linecap="round" stroke-linejoin="round"/>
<path d="M25.3223 32.3734L30.7391 34.9963L29.999 28.7295L25.3223 32.3734Z" fill="#E27625" stroke="#E27625" stroke-width="0.25" stroke-linecap="round" stroke-linejoin="round"/>
<path d="M30.7391 34.9969L25.3223 32.374L25.7631 35.8922L25.7158 37.3843L30.7391 34.9969Z" fill="#D5BFB2" stroke="#D5BFB2" stroke-width="0.25" stroke-linecap="round" stroke-linejoin="round"/>
<path d="M13.9375 34.9969L18.9765 37.3843L18.945 35.8922L19.3701 32.374L13.9375 34.9969Z" fill="#D5BFB2" stroke="#D5BFB2" stroke-width="0.25" stroke-linecap="round" stroke-linejoin="round"/>
<path d="M19.07 26.405L14.5664 25.0857L17.7473 23.625L19.07 26.405Z" fill="#233447" stroke="#233447" stroke-width="0.25" stroke-linecap="round" stroke-linejoin="round"/>
<path d="M25.6211 26.405L26.9439 23.625L30.1405 25.0857L25.6211 26.405Z" fill="#233447" stroke="#233447" stroke-width="0.25" stroke-linecap="round" stroke-linejoin="round"/>
<path d="M13.9369 34.9964L14.7243 28.5254L9.7168 28.6668L13.9369 34.9964Z" fill="#CC6228" stroke="#CC6228" stroke-width="0.25" stroke-linecap="round" stroke-linejoin="round"/>
<path d="M29.9668 28.5254L30.7384 34.9964L34.9743 28.6668L29.9668 28.5254Z" fill="#CC6228" stroke="#CC6228" stroke-width="0.25" stroke-linecap="round" stroke-linejoin="round"/>
<path d="M33.7627 21.3945L24.7871 21.8029L25.6217 26.405L26.9444 23.6248L30.141 25.0856L33.7627 21.3945Z" fill="#CC6228" stroke="#CC6228" stroke-width="0.25" stroke-linecap="round" stroke-linejoin="round"/>
<path d="M14.5672 25.0856L17.748 23.6248L19.0708 26.405L19.9054 21.8029L10.9297 21.3945L14.5672 25.0856Z" fill="#CC6228" stroke="#CC6228" stroke-width="0.25" stroke-linecap="round" stroke-linejoin="round"/>
<path d="M10.9297 21.3945L14.6932 28.7294L14.5672 25.0856L10.9297 21.3945Z" fill="#E27525" stroke="#E27525" stroke-width="0.25" stroke-linecap="round" stroke-linejoin="round"/>
<path d="M30.1417 25.0856L30 28.7294L33.7635 21.3945L30.1417 25.0856Z" fill="#E27525" stroke="#E27525" stroke-width="0.25" stroke-linecap="round" stroke-linejoin="round"/>
<path d="M19.905 21.8027L19.0703 26.4048L20.1253 31.8391L20.3616 24.677L19.905 21.8027Z" fill="#E27525" stroke="#E27525" stroke-width="0.25" stroke-linecap="round" stroke-linejoin="round"/>
<path d="M24.7867 21.8027L24.3457 24.6614L24.5662 31.8391L25.6212 26.4048L24.7867 21.8027Z" fill="#E27525" stroke="#E27525" stroke-width="0.25" stroke-linecap="round" stroke-linejoin="round"/>
<path d="M25.6214 26.4053L24.5664 31.8396L25.3223 32.3737L29.9991 28.7298L30.1408 25.0859L25.6214 26.4053Z" fill="#F5841F" stroke="#F5841F" stroke-width="0.25" stroke-linecap="round" stroke-linejoin="round"/>
<path d="M14.5664 25.0859L14.6925 28.7298L19.3692 32.3737L20.1251 31.8396L19.07 26.4053L14.5664 25.0859Z" fill="#F5841F" stroke="#F5841F" stroke-width="0.25" stroke-linecap="round" stroke-linejoin="round"/>
<path d="M25.7162 37.3835L25.7633 35.8914L25.354 35.5458H19.3387L18.945 35.8914L18.9765 37.3835L13.9375 34.9961L15.7011 36.4411L19.2757 38.907H25.4011L28.9914 36.4411L30.7393 34.9961L25.7162 37.3835Z" fill="#C0AC9D" stroke="#C0AC9D" stroke-width="0.25" stroke-linecap="round" stroke-linejoin="round"/>
<path d="M25.3228 32.3738L24.5669 31.8398H20.1263L19.3705 32.3738L18.9453 35.8921L19.339 35.5465H25.3543L25.7637 35.8921L25.3228 32.3738Z" fill="white" stroke="white" stroke-width="0.25" stroke-linecap="round" stroke-linejoin="round"/>
<path d="M41.384 13.7612L42.7225 7.25886L40.7069 1.21191L25.3223 12.5991L31.243 17.5936L39.6046 20.0282L41.447 17.8764L40.644 17.2952L41.9194 16.133L40.9431 15.3791L42.2186 14.4052L41.384 13.7612Z" fill="#763E1A" stroke="#763E1A" stroke-width="0.25" stroke-linecap="round" stroke-linejoin="round"/>
<path d="M1.9707 7.25886L3.32493 13.7612L2.45886 14.4052L3.7501 15.3791L2.77379 16.133L4.04928 17.2952L3.24619 17.8764L5.08858 20.0282L13.4502 17.5936L19.3709 12.5991L3.9863 1.21191L1.9707 7.25886Z" fill="#763E1A" stroke="#763E1A" stroke-width="0.25" stroke-linecap="round" stroke-linejoin="round"/>
<path d="M39.6056 20.0282L31.244 17.5938L33.7635 21.3947L30 28.7295L34.976 28.6667H42.4085L39.6056 20.0282Z" fill="#F5841F" stroke="#F5841F" stroke-width="0.25" stroke-linecap="round" stroke-linejoin="round"/>
<path d="M13.4495 17.5938L5.08797 20.0282L2.30078 28.6667H9.71754L14.6935 28.7295L10.9301 21.3947L13.4495 17.5938Z" fill="#F5841F" stroke="#F5841F" stroke-width="0.25" stroke-linecap="round" stroke-linejoin="round"/>
<path d="M24.7873 21.8033L25.3226 12.5993L27.7476 6.0498H16.9453L19.3703 12.5993L19.9057 21.8033L20.1104 24.6932L20.1262 31.8397H24.5668L24.5825 24.6932L24.7873 21.8033Z" fill="#F5841F" stroke="#F5841F" stroke-width="0.25" stroke-linecap="round" stroke-linejoin="round"/>
</svg>
