<svg width="206" height="59" viewBox="0 0 206 59" fill="none" xmlns="http://www.w3.org/2000/svg">
  <path d="M197.616 1.18185C201.118 1.18185 203.968 3.96038 203.968 7.37501V51.625C203.968 55.0396 201.118 57.8182 197.616 57.8182H8.51332C5.01114 57.8182 2.16137 55.0396 2.16137 51.625V7.37501C2.16137 3.96038 5.01114 1.18185 8.51332 1.18185H197.616ZM197.616 5.4802e-06H8.51332C4.35496 5.4802e-06 0.949219 3.3206 0.949219 7.37501V51.625C0.949219 55.6794 4.35496 59 8.51332 59H197.616C201.774 59 205.18 55.6794 205.18 51.625V7.37501C205.18 3.3206 201.774 5.4802e-06 197.616 5.4802e-06Z" fill="#1B1B1B"/>
  <path d="M46.5272 29.1812C46.4833 24.4273 50.5195 22.1145 50.7041 22.0068C48.4182 18.7574 44.8752 18.3134 43.6301 18.278C40.6544 17.9727 37.768 20.0141 36.2521 20.0141C34.706 20.0141 32.3717 18.3075 29.8559 18.3577C26.6185 18.4064 23.5898 20.2339 21.9287 23.0718C18.5007 28.8582 21.0573 37.3616 24.3417 42.0388C25.9846 44.3295 27.9044 46.8871 30.4172 46.7972C32.8755 46.6983 33.7938 45.2691 36.7604 45.2691C39.6998 45.2691 40.5621 46.7972 43.1248 46.7396C45.7632 46.6983 47.4243 44.4386 49.0097 42.1273C50.9083 39.5018 51.6708 36.9161 51.701 36.7834C51.639 36.7627 46.5771 34.8792 46.5272 29.1812Z" fill="white"/>
  <path d="M41.6862 15.2012C43.0084 13.589 43.913 11.3957 43.6619 9.16992C41.7482 9.25252 39.3549 10.4605 37.9767 12.0373C36.7574 13.4268 35.6682 15.7042 35.9495 17.8459C38.0993 18.0022 40.3065 16.7883 41.6862 15.2012Z" fill="white"/>
  <path d="M82.104 46.4682H78.6683L76.7864 40.7024H70.245L68.4523 46.4682H65.1074L71.5883 26.8389H75.5913L82.104 46.4682ZM76.2191 38.2834L74.5172 33.1578C74.3371 32.6341 73.9998 31.401 73.5021 29.4599H73.4415C73.2434 30.2948 72.9242 31.5279 72.4854 33.1578L70.8138 38.2834H76.2191Z" fill="white"/>
  <path d="M98.771 39.217C98.771 41.6242 98.1038 43.527 96.7695 44.9238C95.5744 46.1672 94.0903 46.7882 92.3188 46.7882C90.4066 46.7882 89.033 46.1185 88.1964 44.7792H88.1359V52.2354H84.9105V36.9735C84.9105 35.4602 84.8697 33.907 84.791 32.314H87.6276L87.8076 34.5575H87.8681C88.9437 32.8671 90.576 32.0234 92.7666 32.0234C94.4791 32.0234 95.9087 32.6828 97.0524 34.0029C98.1991 35.3245 98.771 37.062 98.771 39.217ZM95.4851 39.3321C95.4851 37.9544 95.1675 36.8187 94.529 35.9248C93.8316 34.9926 92.8952 34.5265 91.7212 34.5265C90.9255 34.5265 90.2024 34.7861 89.5564 35.2979C88.9089 35.8142 88.4853 36.4883 88.2871 37.3231C88.1873 37.7125 88.1374 38.0311 88.1374 38.2819V40.6419C88.1374 41.6714 88.4611 42.5402 89.1086 43.2497C89.7561 43.9591 90.5972 44.3131 91.632 44.3131C92.8468 44.3131 93.7923 43.8559 94.4685 42.9443C95.1463 42.0313 95.4851 40.8277 95.4851 39.3321Z" fill="white"/>
  <path d="M115.467 39.217C115.467 41.6242 114.8 43.527 113.464 44.9238C112.27 46.1672 110.786 46.7882 109.015 46.7882C107.102 46.7882 105.729 46.1185 104.894 44.7792H104.833V52.2354H101.608V36.9735C101.608 35.4602 101.567 33.907 101.488 32.314H104.325L104.505 34.5575H104.565C105.639 32.8671 107.272 32.0234 109.464 32.0234C111.175 32.0234 112.604 32.6828 113.751 34.0029C114.893 35.3245 115.467 37.062 115.467 39.217ZM112.181 39.3321C112.181 37.9544 111.862 36.8187 111.223 35.9248C110.526 34.9926 109.592 34.5265 108.417 34.5265C107.62 34.5265 106.898 34.7861 106.251 35.2979C105.603 35.8142 105.181 36.4883 104.983 37.3231C104.885 37.7125 104.833 38.0311 104.833 38.2819V40.6419C104.833 41.6714 105.157 42.5402 105.801 43.2497C106.449 43.9577 107.29 44.3131 108.328 44.3131C109.543 44.3131 110.488 43.8559 111.164 42.9443C111.842 42.0313 112.181 40.8277 112.181 39.3321Z" fill="white"/>
  <path d="M134.136 40.963C134.136 42.6327 133.542 43.9912 132.348 45.0399C131.037 46.186 129.211 46.7583 126.864 46.7583C124.698 46.7583 122.961 46.3512 121.646 45.5355L122.394 42.9144C123.81 43.7493 125.363 44.1682 127.056 44.1682C128.271 44.1682 129.217 43.8997 129.896 43.3658C130.572 42.8318 130.909 42.115 130.909 41.2211C130.909 40.4246 130.631 39.7535 130.073 39.2092C129.518 38.665 128.59 38.159 127.295 37.6915C123.77 36.4097 122.01 34.532 122.01 32.0629C122.01 30.4492 122.627 29.1261 123.863 28.0966C125.094 27.0656 126.737 26.5508 128.792 26.5508C130.624 26.5508 132.145 26.862 133.36 27.483L132.554 30.0465C131.419 29.4447 130.136 29.1438 128.701 29.1438C127.566 29.1438 126.68 29.4167 126.044 29.9595C125.507 30.4448 125.238 31.0363 125.238 31.7369C125.238 32.5127 125.545 33.1544 126.162 33.6588C126.699 34.1249 127.675 34.6294 129.091 35.1736C130.823 35.8536 132.096 36.6486 132.914 37.5602C133.729 38.4688 134.136 39.606 134.136 40.963Z" fill="white"/>
  <path d="M144.8 34.6738H141.245V41.5459C141.245 43.2937 141.871 44.1669 143.127 44.1669C143.703 44.1669 144.181 44.1183 144.559 44.0209L144.649 46.4089C144.013 46.6405 143.177 46.757 142.14 46.757C140.867 46.757 139.871 46.378 139.153 45.6213C138.437 44.8631 138.077 43.5917 138.077 41.8055V34.6709H135.959V32.3109H138.077V29.7193L141.245 28.7871V32.3109H144.8V34.6738Z" fill="white"/>
  <path d="M160.84 39.2741C160.84 41.4497 160.202 43.2359 158.928 44.6328C157.592 46.0709 155.819 46.7878 153.609 46.7878C151.479 46.7878 149.783 46.0989 148.518 44.7213C147.253 43.3436 146.621 41.6046 146.621 39.5086C146.621 37.3153 147.272 35.5188 148.577 34.1219C149.88 32.7236 151.638 32.0245 153.848 32.0245C155.978 32.0245 157.692 32.7133 158.985 34.0924C160.223 35.4303 160.84 37.1575 160.84 39.2741ZM157.494 39.3759C157.494 38.0705 157.208 36.951 156.628 36.0173C155.952 34.8875 154.985 34.324 153.733 34.324C152.436 34.324 151.452 34.8889 150.775 36.0173C150.196 36.9525 149.91 38.0897 149.91 39.4349C149.91 40.7402 150.196 41.8598 150.775 42.792C151.473 43.9218 152.447 44.4853 153.704 44.4853C154.936 44.4853 155.902 43.91 156.6 42.7625C157.194 41.8111 157.494 40.6798 157.494 39.3759Z" fill="white"/>
  <path d="M171.325 35.0796C171.006 35.0221 170.666 34.9926 170.309 34.9926C169.174 34.9926 168.297 35.41 167.68 36.2464C167.142 36.9839 166.873 37.9161 166.873 39.0415V46.4681H163.649L163.68 36.7715C163.68 35.1401 163.639 33.6548 163.559 32.3155H166.368L166.486 35.0236H166.575C166.916 34.0929 167.453 33.3436 168.188 32.7816C168.906 32.2757 169.683 32.0234 170.519 32.0234C170.817 32.0234 171.086 32.0441 171.325 32.081V35.0796Z" fill="white"/>
  <path d="M185.749 38.7206C185.749 39.2841 185.711 39.759 185.631 40.1469H175.955C175.993 41.5452 176.46 42.6146 177.359 43.3521C178.174 44.0114 179.229 44.3418 180.524 44.3418C181.956 44.3418 183.263 44.1191 184.439 43.6722L184.944 45.8552C183.571 46.4393 181.949 46.7299 180.077 46.7299C177.826 46.7299 176.059 46.0838 174.773 44.7932C173.491 43.5026 172.848 41.7694 172.848 39.5953C172.848 37.461 173.445 35.6836 174.642 34.2661C175.894 32.7528 177.587 31.9961 179.717 31.9961C181.81 31.9961 183.394 32.7528 184.469 34.2661C185.321 35.4682 185.749 36.955 185.749 38.7206ZM182.673 37.9049C182.695 36.9727 182.484 36.1674 182.047 35.4874C181.489 34.6127 180.631 34.1761 179.477 34.1761C178.422 34.1761 177.565 34.6024 176.91 35.4579C176.373 36.1379 176.053 36.9536 175.955 37.9035H182.673V37.9049Z" fill="white"/>
  <path d="M75.1533 14.7633C75.1533 16.4994 74.6193 17.8063 73.5528 18.6839C72.5649 19.4937 71.161 19.8993 69.3426 19.8993C68.441 19.8993 67.6694 19.8609 67.0234 19.7842V10.2985C67.8661 10.1657 68.7738 10.0979 69.7541 10.0979C71.4863 10.0979 72.7918 10.4652 73.6723 11.1997C74.6587 12.0302 75.1533 13.2175 75.1533 14.7633ZM73.4817 14.8061C73.4817 13.6807 73.1761 12.8178 72.5649 12.216C71.9537 11.6157 71.0612 11.3148 69.8857 11.3148C69.3865 11.3148 68.9614 11.3472 68.6089 11.4151V18.6264C68.804 18.6559 69.1611 18.6691 69.68 18.6691C70.8932 18.6691 71.8297 18.3402 72.4893 17.6824C73.1489 17.0245 73.4817 16.0658 73.4817 14.8061Z" fill="white"/>
  <path d="M84.0179 16.2796C84.0179 17.349 83.7047 18.2251 83.0784 18.9125C82.4219 19.619 81.552 19.9715 80.4658 19.9715C79.4189 19.9715 78.5854 19.6337 77.9636 18.9552C77.3433 18.2782 77.0332 17.4242 77.0332 16.3946C77.0332 15.3179 77.3524 14.4344 77.9938 13.7485C78.6353 13.0626 79.4976 12.7189 80.5838 12.7189C81.6307 12.7189 82.4718 13.0567 83.1087 13.7337C83.7138 14.3916 84.0179 15.2412 84.0179 16.2796ZM82.3735 16.3297C82.3735 15.6881 82.2313 15.1379 81.9484 14.6792C81.6155 14.1246 81.142 13.8473 80.5263 13.8473C79.8894 13.8473 79.4053 14.1246 79.0725 14.6792C78.7881 15.1379 78.6474 15.697 78.6474 16.3578C78.6474 16.9994 78.7896 17.5496 79.0725 18.0083C79.4159 18.5629 79.8939 18.8402 80.5112 18.8402C81.1163 18.8402 81.5913 18.5585 81.9332 17.9935C82.2267 17.526 82.3735 16.9714 82.3735 16.3297Z" fill="white"/>
  <path d="M95.9009 12.8605L93.6695 19.8137H92.2172L91.2929 16.7944C91.0584 16.0406 90.8678 15.2913 90.7195 14.5479H90.6908C90.5531 15.312 90.3625 16.0598 90.1174 16.7944L89.1356 19.8137H87.6666L85.5684 12.8605H87.1977L88.004 16.166C88.1991 16.9478 88.3595 17.6926 88.4881 18.3977H88.5168C88.6348 17.8165 88.83 17.0761 89.1053 16.1808L90.1174 12.862H91.4094L92.3791 16.11C92.6136 16.902 92.8042 17.6646 92.9509 18.3992H92.9948C93.1022 17.6838 93.2641 16.9212 93.4789 16.11L94.3442 12.862H95.9009V12.8605Z" fill="white"/>
  <path d="M104.122 19.8142H102.537V15.8317C102.537 14.6045 102.059 13.9909 101.099 13.9909C100.629 13.9909 100.249 14.1591 99.9542 14.4968C99.6623 14.8346 99.514 15.2329 99.514 15.6886V19.8127H97.9286V14.8479C97.9286 14.2372 97.9089 13.575 97.8711 12.8581H99.2644L99.3385 13.9452H99.3824C99.567 13.6074 99.8423 13.3286 100.204 13.1059C100.633 12.8463 101.115 12.715 101.641 12.715C102.307 12.715 102.86 12.9245 103.301 13.3449C103.848 13.8596 104.122 14.6281 104.122 15.6488V19.8142Z" fill="white"/>
  <path d="M108.492 19.8137H106.908V9.6701H108.492V19.8137Z" fill="white"/>
  <path d="M117.826 16.2796C117.826 17.349 117.513 18.2251 116.887 18.9125C116.23 19.619 115.359 19.9715 114.274 19.9715C113.226 19.9715 112.392 19.6337 111.772 18.9552C111.152 18.2782 110.842 17.4242 110.842 16.3946C110.842 15.3179 111.161 14.4344 111.802 13.7485C112.444 13.0626 113.306 12.7189 114.391 12.7189C115.439 12.7189 116.279 13.0567 116.917 13.7337C117.522 14.3916 117.826 15.2412 117.826 16.2796ZM116.181 16.3297C116.181 15.6881 116.038 15.1379 115.755 14.6792C115.424 14.1246 114.949 13.8473 114.335 13.8473C113.696 13.8473 113.212 14.1246 112.881 14.6792C112.597 15.1379 112.456 15.697 112.456 16.3578C112.456 16.9994 112.598 17.5496 112.881 18.0083C113.224 18.5629 113.703 18.8402 114.32 18.8402C114.925 18.8402 115.398 18.5585 115.74 17.9935C116.035 17.526 116.181 16.9714 116.181 16.3297Z" fill="white"/>
  <path d="M125.499 19.8137H124.076L123.958 19.0128H123.914C123.427 19.6514 122.732 19.9715 121.831 19.9715C121.157 19.9715 120.613 19.7606 120.203 19.3417C119.831 18.9611 119.645 18.4877 119.645 17.9257C119.645 17.0761 120.008 16.4286 120.738 15.9802C121.467 15.5318 122.493 15.312 123.814 15.3223V15.1925C123.814 14.2765 123.321 13.8193 122.333 13.8193C121.629 13.8193 121.009 13.9919 120.474 14.3341L120.151 13.3193C120.814 12.9195 121.632 12.7189 122.598 12.7189C124.461 12.7189 125.396 13.6777 125.396 15.5952V18.1558C125.396 18.8505 125.431 19.4036 125.499 19.8137ZM123.853 17.4242V16.3519C122.104 16.3224 121.23 16.7899 121.23 17.7531C121.23 18.116 121.33 18.3874 121.534 18.5688C121.738 18.7502 121.998 18.8402 122.309 18.8402C122.657 18.8402 122.982 18.7325 123.278 18.5186C123.576 18.3033 123.759 18.0304 123.827 17.6956C123.844 17.6204 123.853 17.5289 123.853 17.4242Z" fill="white"/>
  <path d="M134.509 19.8137H133.102L133.028 18.6971H132.984C132.535 19.5467 131.769 19.9715 130.694 19.9715C129.834 19.9715 129.119 19.6426 128.551 18.9847C127.984 18.3269 127.701 17.4729 127.701 16.4241C127.701 15.2987 128.008 14.3872 128.626 13.691C129.223 13.042 129.955 12.7175 130.827 12.7175C131.784 12.7175 132.454 13.0316 132.836 13.6615H132.866V9.6701H134.453V17.9404C134.453 18.6175 134.471 19.2414 134.509 19.8137ZM132.866 16.8814V15.722C132.866 15.5214 132.851 15.3592 132.822 15.2353C132.733 14.8636 132.541 14.5509 132.249 14.2987C131.954 14.0464 131.598 13.9196 131.188 13.9196C130.597 13.9196 130.134 14.1482 129.793 14.6069C129.456 15.0657 129.285 15.6512 129.285 16.3666C129.285 17.054 129.447 17.6115 129.772 18.0407C130.116 18.498 130.579 18.7266 131.158 18.7266C131.678 18.7266 132.094 18.5363 132.411 18.1543C132.716 17.8018 132.866 17.377 132.866 16.8814Z" fill="white"/>
  <path d="M148.069 16.2796C148.069 17.349 147.756 18.2251 147.129 18.9125C146.473 19.619 145.604 19.9715 144.517 19.9715C143.471 19.9715 142.638 19.6337 142.014 18.9552C141.394 18.2782 141.084 17.4242 141.084 16.3946C141.084 15.3179 141.403 14.4344 142.045 13.7485C142.686 13.0626 143.548 12.7189 144.636 12.7189C145.681 12.7189 146.524 13.0567 147.159 13.7337C147.765 14.3916 148.069 15.2412 148.069 16.2796ZM146.426 16.3297C146.426 15.6881 146.284 15.1379 146.001 14.6792C145.666 14.1246 145.194 13.8473 144.577 13.8473C143.942 13.8473 143.458 14.1246 143.123 14.6792C142.839 15.1379 142.698 15.697 142.698 16.3578C142.698 16.9994 142.84 17.5496 143.123 18.0083C143.467 18.5629 143.945 18.8402 144.562 18.8402C145.167 18.8402 145.644 18.5585 145.986 17.9935C146.277 17.526 146.426 16.9714 146.426 16.3297Z" fill="white"/>
  <path d="M156.593 19.8132H155.009V15.8307C155.009 14.6035 154.531 13.9899 153.571 13.9899C153.1 13.9899 152.72 14.1581 152.427 14.4959C152.133 14.8336 151.987 15.2319 151.987 15.6877V19.8118H150.4V14.8469C150.4 14.2363 150.382 13.574 150.344 12.8571H151.736L151.81 13.9442H151.854C152.04 13.6064 152.315 13.3277 152.675 13.1049C153.106 12.8453 153.586 12.7141 154.114 12.7141C154.778 12.7141 155.332 12.9235 155.772 13.3439C156.321 13.8587 156.593 14.6271 156.593 15.6478V19.8132Z" fill="white"/>
  <path d="M167.263 14.0186H165.517V17.3964C165.517 18.2548 165.828 18.684 166.442 18.684C166.726 18.684 166.962 18.6604 167.148 18.6118L167.189 19.7844C166.876 19.8994 166.464 19.957 165.958 19.957C165.331 19.957 164.844 19.7711 164.492 19.3994C164.138 19.0277 163.962 18.4023 163.962 17.5247V14.0186H162.92V12.8607H163.962V11.5863L165.516 11.1291V12.8593H167.262V14.0186H167.263Z" fill="white"/>
  <path d="M175.656 19.8137H174.069V15.8607C174.069 14.6143 173.591 13.9904 172.634 13.9904C171.899 13.9904 171.396 14.3518 171.121 15.0745C171.074 15.2264 171.047 15.4123 171.047 15.6306V19.8122H169.463V9.6701H171.047V13.8606H171.077C171.576 13.098 172.292 12.7175 173.219 12.7175C173.876 12.7175 174.419 12.9269 174.85 13.3473C175.387 13.8709 175.656 14.6497 175.656 15.6793V19.8137Z" fill="white"/>
  <path d="M184.315 16.0078C184.315 16.2851 184.294 16.5181 184.256 16.7084H179.501C179.522 17.3958 179.749 17.9194 180.189 18.2822C180.592 18.6067 181.111 18.769 181.746 18.769C182.45 18.769 183.091 18.6598 183.669 18.4401L183.917 19.5139C183.241 19.8 182.445 19.9431 181.524 19.9431C180.419 19.9431 179.549 19.626 178.92 18.9917C178.288 18.3575 177.975 17.5064 177.975 16.4385C177.975 15.3898 178.267 14.5166 178.855 13.8204C179.469 13.077 180.3 12.7053 181.348 12.7053C182.374 12.7053 183.153 13.077 183.679 13.8204C184.105 14.4104 184.315 15.1405 184.315 16.0078ZM182.802 15.6081C182.814 15.1493 182.71 14.754 182.495 14.4207C182.22 13.9915 181.801 13.7761 181.233 13.7761C180.716 13.7761 180.294 13.9856 179.972 14.4059C179.708 14.7408 179.552 15.1405 179.501 15.6081H182.802Z" fill="white"/>
</svg>