<svg width="205" height="59" viewBox="0 0 205 59" fill="none" xmlns="http://www.w3.org/2000/svg">
<path d="M196.846 1.18185C200.349 1.18185 203.198 3.96038 203.198 7.37501V51.625C203.198 55.0396 200.349 57.8182 196.846 57.8182H7.74379C4.24161 57.8182 1.39183 55.0396 1.39183 51.625V7.37501C1.39183 3.96038 4.24161 1.18185 7.74379 1.18185H196.846ZM196.846 5.4802e-06H7.74379C3.58542 5.4802e-06 0.179688 3.3206 0.179688 7.37501V51.625C0.179688 55.6794 3.58542 59 7.74379 59H196.846C201.005 59 204.41 55.6794 204.41 51.625V7.37501C204.41 3.3206 201.005 5.4802e-06 196.846 5.4802e-06Z" fill="#1B1B1B"/>
<path d="M74.3838 14.7633C74.3838 16.4994 73.8498 17.8063 72.7832 18.6839C71.7954 19.4937 70.3915 19.8993 68.5731 19.8993C67.6714 19.8993 66.8999 19.8609 66.2539 19.7842V10.2985C67.0965 10.1657 68.0042 10.0979 68.9846 10.0979C70.7167 10.0979 72.0223 10.4652 72.9028 11.1997C73.8891 12.0302 74.3838 13.2175 74.3838 14.7633ZM72.7121 14.8061C72.7121 13.6807 72.4066 12.8178 71.7954 12.216C71.1842 11.6157 70.2916 11.3148 69.1162 11.3148C68.6169 11.3148 68.1918 11.3472 67.8393 11.4151V18.6264C68.0345 18.6559 68.3915 18.6691 68.9104 18.6691C70.1237 18.6691 71.0601 18.3402 71.7197 17.6824C72.3793 17.0245 72.7121 16.0658 72.7121 14.8061Z" fill="white"/>
<path d="M83.2484 16.2796C83.2484 17.349 82.9352 18.2251 82.3089 18.9125C81.6523 19.619 80.7825 19.9715 79.6963 19.9715C78.6494 19.9715 77.8158 19.6337 77.1941 18.9552C76.5738 18.2782 76.2637 17.4242 76.2637 16.3946C76.2637 15.3179 76.5829 14.4344 77.2243 13.7485C77.8657 13.0626 78.7281 12.7189 79.8143 12.7189C80.8611 12.7189 81.7023 13.0567 82.3392 13.7337C82.9443 14.3916 83.2484 15.2412 83.2484 16.2796ZM81.6039 16.3297C81.6039 15.6881 81.4617 15.1379 81.1788 14.6792C80.846 14.1246 80.3725 13.8473 79.7568 13.8473C79.1199 13.8473 78.6358 14.1246 78.303 14.6792C78.0185 15.1379 77.8779 15.697 77.8779 16.3578C77.8779 16.9994 78.0201 17.5496 78.303 18.0083C78.6464 18.5629 79.1244 18.8402 79.7416 18.8402C80.3468 18.8402 80.8218 18.5585 81.1637 17.9935C81.4572 17.526 81.6039 16.9714 81.6039 16.3297Z" fill="white"/>
<path d="M95.1314 12.8605L92.9 19.8137H91.4477L90.5233 16.7944C90.2889 16.0406 90.0982 15.2913 89.95 14.5479H89.9212C89.7836 15.312 89.593 16.0598 89.3479 16.7944L88.3661 19.8137H86.8971L84.7988 12.8605H86.4281L87.2345 16.166C87.4296 16.9478 87.59 17.6926 87.7186 18.3977H87.7473C87.8653 17.8165 88.0605 17.0761 88.3358 16.1808L89.3479 12.862H90.6398L91.6095 16.11C91.844 16.902 92.0346 17.6646 92.1814 18.3992H92.2253C92.3327 17.6838 92.4945 16.9212 92.7094 16.11L93.5747 12.862H95.1314V12.8605Z" fill="white"/>
<path d="M103.353 19.8142H101.767V15.8317C101.767 14.6045 101.289 13.9909 100.33 13.9909C99.8594 13.9909 99.4797 14.1591 99.1847 14.4968C98.8927 14.8346 98.7445 15.2329 98.7445 15.6886V19.8127H97.159V14.8479C97.159 14.2372 97.1394 13.575 97.1016 12.8581H98.4949L98.569 13.9452H98.6129C98.7974 13.6074 99.0728 13.3286 99.4343 13.1059C99.864 12.8463 100.345 12.715 100.871 12.715C101.537 12.715 102.091 12.9245 102.531 13.3449C103.079 13.8596 103.353 14.6281 103.353 15.6488V19.8142Z" fill="white"/>
<path d="M107.723 19.8137H106.139V9.6701H107.723V19.8137Z" fill="white"/>
<path d="M117.057 16.2796C117.057 17.349 116.744 18.2251 116.117 18.9125C115.461 19.619 114.59 19.9715 113.505 19.9715C112.456 19.9715 111.623 19.6337 111.003 18.9552C110.382 18.2782 110.072 17.4242 110.072 16.3946C110.072 15.3179 110.391 14.4344 111.033 13.7485C111.674 13.0626 112.537 12.7189 113.621 12.7189C114.67 12.7189 115.509 13.0567 116.148 13.7337C116.753 14.3916 117.057 15.2412 117.057 16.2796ZM115.411 16.3297C115.411 15.6881 115.269 15.1379 114.986 14.6792C114.655 14.1246 114.18 13.8473 113.565 13.8473C112.927 13.8473 112.443 14.1246 112.112 14.6792C111.827 15.1379 111.686 15.697 111.686 16.3578C111.686 16.9994 111.829 17.5496 112.112 18.0083C112.455 18.5629 112.933 18.8402 113.55 18.8402C114.155 18.8402 114.629 18.5585 114.971 17.9935C115.266 17.526 115.411 16.9714 115.411 16.3297Z" fill="white"/>
<path d="M124.73 19.8137H123.306L123.188 19.0128H123.144C122.657 19.6514 121.963 19.9715 121.061 19.9715C120.388 19.9715 119.843 19.7606 119.433 19.3417C119.061 18.9611 118.875 18.4877 118.875 17.9257C118.875 17.0761 119.238 16.4286 119.969 15.9802C120.698 15.5318 121.724 15.312 123.044 15.3223V15.1925C123.044 14.2765 122.551 13.8193 121.563 13.8193C120.86 13.8193 120.24 13.9919 119.704 14.3341L119.382 13.3193C120.044 12.9195 120.863 12.7189 121.828 12.7189C123.692 12.7189 124.627 13.6777 124.627 15.5952V18.1558C124.627 18.8505 124.662 19.4036 124.73 19.8137ZM123.084 17.4242V16.3519C121.335 16.3224 120.46 16.7899 120.46 17.7531C120.46 18.116 120.56 18.3874 120.765 18.5688C120.969 18.7502 121.229 18.8402 121.539 18.8402C121.887 18.8402 122.212 18.7325 122.509 18.5186C122.807 18.3033 122.99 18.0304 123.058 17.6956C123.075 17.6204 123.084 17.5289 123.084 17.4242Z" fill="white"/>
<path d="M133.739 19.8137H132.332L132.258 18.6971H132.214C131.765 19.5467 131 19.9715 129.924 19.9715C129.065 19.9715 128.349 19.6426 127.782 18.9847C127.215 18.3269 126.932 17.4729 126.932 16.4241C126.932 15.2987 127.239 14.3872 127.856 13.691C128.454 13.042 129.186 12.7175 130.057 12.7175C131.015 12.7175 131.685 13.0316 132.066 13.6615H132.096V9.6701H133.683V17.9404C133.683 18.6175 133.702 19.2414 133.739 19.8137ZM132.096 16.8814V15.722C132.096 15.5214 132.081 15.3592 132.053 15.2353C131.963 14.8636 131.771 14.5509 131.479 14.2987C131.184 14.0464 130.829 13.9196 130.419 13.9196C129.827 13.9196 129.364 14.1482 129.024 14.6069C128.687 15.0657 128.516 15.6512 128.516 16.3666C128.516 17.054 128.677 17.6115 129.003 18.0407C129.346 18.498 129.809 18.7266 130.388 18.7266C130.909 18.7266 131.325 18.5363 131.641 18.1543C131.947 17.8018 132.096 17.377 132.096 16.8814Z" fill="white"/>
<path d="M147.299 16.2796C147.299 17.349 146.986 18.2251 146.36 18.9125C145.703 19.619 144.835 19.9715 143.747 19.9715C142.702 19.9715 141.868 19.6337 141.245 18.9552C140.625 18.2782 140.314 17.4242 140.314 16.3946C140.314 15.3179 140.634 14.4344 141.275 13.7485C141.917 13.0626 142.779 12.7189 143.867 12.7189C144.912 12.7189 145.755 13.0567 146.39 13.7337C146.995 14.3916 147.299 15.2412 147.299 16.2796ZM145.656 16.3297C145.656 15.6881 145.514 15.1379 145.231 14.6792C144.897 14.1246 144.425 13.8473 143.808 13.8473C143.172 13.8473 142.688 14.1246 142.354 14.6792C142.069 15.1379 141.929 15.697 141.929 16.3578C141.929 16.9994 142.071 17.5496 142.354 18.0083C142.697 18.5629 143.175 18.8402 143.792 18.8402C144.398 18.8402 144.874 18.5585 145.216 17.9935C145.508 17.526 145.656 16.9714 145.656 16.3297Z" fill="white"/>
<path d="M155.824 19.8132H154.24V15.8307C154.24 14.6035 153.762 13.9899 152.801 13.9899C152.331 13.9899 151.951 14.1581 151.657 14.4959C151.364 14.8336 151.217 15.2319 151.217 15.6877V19.8118H149.63V14.8469C149.63 14.2363 149.612 13.574 149.574 12.8571H150.966L151.04 13.9442H151.084C151.27 13.6064 151.545 13.3277 151.905 13.1049C152.337 12.8453 152.816 12.7141 153.344 12.7141C154.008 12.7141 154.562 12.9235 155.002 13.3439C155.551 13.8587 155.824 14.6271 155.824 15.6478V19.8132Z" fill="white"/>
<path d="M166.494 14.0186H164.748V17.3964C164.748 18.2548 165.058 18.684 165.672 18.684C165.957 18.684 166.193 18.6604 166.379 18.6118L166.42 19.7844C166.106 19.8994 165.695 19.957 165.188 19.957C164.562 19.957 164.075 19.7711 163.722 19.3994C163.368 19.0277 163.193 18.4023 163.193 17.5247V14.0186H162.15V12.8607H163.193V11.5863L164.746 11.1291V12.8593H166.492V14.0186H166.494Z" fill="white"/>
<path d="M174.887 19.8137H173.3V15.8607C173.3 14.6143 172.822 13.9904 171.864 13.9904C171.129 13.9904 170.627 14.3518 170.351 15.0745C170.305 15.2264 170.277 15.4123 170.277 15.6306V19.8122H168.693V9.6701H170.277V13.8606H170.308C170.807 13.098 171.522 12.7175 172.45 12.7175C173.106 12.7175 173.649 12.9269 174.081 13.3473C174.618 13.8709 174.887 14.6497 174.887 15.6793V19.8137Z" fill="white"/>
<path d="M183.545 16.0078C183.545 16.2851 183.524 16.5181 183.486 16.7084H178.732C178.753 17.3958 178.98 17.9194 179.42 18.2822C179.822 18.6067 180.341 18.769 180.977 18.769C181.68 18.769 182.321 18.6598 182.899 18.4401L183.147 19.5139C182.471 19.8 181.675 19.9431 180.754 19.9431C179.65 19.9431 178.78 19.626 178.151 18.9917C177.518 18.3575 177.205 17.5064 177.205 16.4385C177.205 15.3898 177.497 14.5166 178.086 13.8204C178.7 13.077 179.53 12.7053 180.579 12.7053C181.604 12.7053 182.383 13.077 182.91 13.8204C183.335 14.4104 183.545 15.1405 183.545 16.0078ZM182.032 15.6081C182.045 15.1493 181.94 14.754 181.725 14.4207C181.45 13.9915 181.031 13.7761 180.464 13.7761C179.946 13.7761 179.524 13.9856 179.202 14.4059C178.939 14.7408 178.783 15.1405 178.732 15.6081H182.032Z" fill="white"/>
<g clip-path="url(#clip0_2078_3087)">
<path d="M32.6797 38.7459C37.7883 38.7459 41.9297 34.6045 41.9297 29.4959C41.9297 24.3873 37.7883 20.2459 32.6797 20.2459C27.5711 20.2459 23.4297 24.3873 23.4297 29.4959C23.4297 34.6045 27.5711 38.7459 32.6797 38.7459Z" fill="white"/>
<path d="M32.6802 20.25H48.699C47.0758 17.4375 44.7407 15.102 41.9285 13.4782C39.1163 11.8544 35.9262 10.9997 32.6789 10.9999C29.4316 11.0002 26.2416 11.8553 23.4297 13.4795C20.6178 15.1036 18.283 17.4395 16.6602 20.2522L24.6696 34.125L24.6767 34.1231C23.862 32.7181 23.432 31.1231 23.4302 29.4989C23.4284 27.8748 23.8547 26.2788 24.6663 24.872C25.478 23.4651 26.6461 22.2971 28.053 21.4856C29.46 20.6742 31.056 20.248 32.6802 20.25Z" fill="url(#paint0_linear_2078_3087)"/>
<path d="M32.6803 36.8229C36.7247 36.8229 40.0033 33.5443 40.0033 29.5C40.0033 25.4556 36.7247 22.1771 32.6803 22.1771C28.636 22.1771 25.3574 25.4556 25.3574 29.5C25.3574 33.5443 28.636 36.8229 32.6803 36.8229Z" fill="#1A73E8"/>
<path d="M40.6905 34.1272L32.681 48C35.9283 48.0004 39.1185 47.1459 41.9308 45.5224C44.743 43.8988 47.0783 41.5635 48.7017 38.7511C50.3252 35.9388 51.1795 32.7486 51.179 29.5013C51.1784 26.254 50.3229 23.0641 48.6984 20.2524H32.6797L32.6777 20.2595C34.3019 20.2564 35.8982 20.6815 37.3057 21.492C38.7132 22.3025 39.8822 23.4698 40.6947 24.8761C41.5073 26.2824 41.9347 27.878 41.934 29.5022C41.9332 31.1264 41.5043 32.7217 40.6905 34.1272Z" fill="url(#paint1_linear_2078_3087)"/>
<path d="M24.6703 34.1274L16.6609 20.2546C15.0368 23.0666 14.1818 26.2567 14.1816 29.5039C14.1815 32.7512 15.0364 35.9413 16.6602 38.7534C18.284 41.5656 20.6196 43.9006 23.4322 45.5237C26.2447 47.1469 29.435 48.0009 32.6823 48L40.6917 34.1272L40.6865 34.122C39.8771 35.5301 38.7108 36.7 37.3051 37.5137C35.8995 38.3273 34.3042 38.756 32.68 38.7566C31.0558 38.7571 29.4602 38.3295 28.054 37.5168C26.6478 36.7041 25.4807 35.535 24.6703 34.1274Z" fill="url(#paint2_linear_2078_3087)"/>
</g>
<path d="M70.5277 43.168C69.557 43.168 68.717 42.958 68.0077 42.538C67.3077 42.1087 66.7664 41.516 66.3837 40.76C66.0104 39.9947 65.8237 39.1127 65.8237 38.114C65.8237 37.106 66.0104 36.224 66.3837 35.468C66.7664 34.7027 67.3077 34.1053 68.0077 33.676C68.717 33.2467 69.557 33.032 70.5277 33.032C71.6944 33.032 72.6464 33.3213 73.3837 33.9C74.121 34.4693 74.5877 35.2767 74.7837 36.322H72.9357C72.805 35.7713 72.539 35.3373 72.1377 35.02C71.7364 34.7027 71.195 34.544 70.5137 34.544C69.8977 34.544 69.3657 34.6887 68.9177 34.978C68.479 35.258 68.1384 35.6687 67.8957 36.21C67.6624 36.742 67.5457 37.3767 67.5457 38.114C67.5457 38.8513 67.6624 39.486 67.8957 40.018C68.1384 40.5407 68.479 40.9467 68.9177 41.236C69.3657 41.516 69.8977 41.656 70.5137 41.656C71.195 41.656 71.7364 41.5113 72.1377 41.222C72.539 40.9233 72.805 40.5127 72.9357 39.99H74.7837C74.597 40.9793 74.1304 41.7587 73.3837 42.328C72.6464 42.888 71.6944 43.168 70.5277 43.168ZM76.3716 43V32.92H78.0516V37.036C78.2849 36.6533 78.6023 36.35 79.0036 36.126C79.4049 35.8927 79.8576 35.776 80.3616 35.776C80.9403 35.776 81.4303 35.8973 81.8316 36.14C82.2329 36.3733 82.5363 36.7233 82.7416 37.19C82.9563 37.6473 83.0636 38.2213 83.0636 38.912V43H81.3976V39.066C81.3976 38.4593 81.2669 37.9973 81.0056 37.68C80.7536 37.3627 80.3663 37.204 79.8436 37.204C79.5076 37.204 79.2043 37.288 78.9336 37.456C78.6629 37.6147 78.4483 37.848 78.2896 38.156C78.1309 38.4547 78.0516 38.8233 78.0516 39.262V43H76.3716ZM84.8482 43V35.944H86.3462L86.5002 37.26C86.6682 36.952 86.8782 36.6907 87.1302 36.476C87.3822 36.252 87.6762 36.0793 88.0122 35.958C88.3575 35.8367 88.7355 35.776 89.1462 35.776V37.554H88.5582C88.2782 37.554 88.0122 37.5913 87.7602 37.666C87.5082 37.7313 87.2888 37.8433 87.1022 38.002C86.9248 38.1513 86.7848 38.3613 86.6822 38.632C86.5795 38.8933 86.5282 39.2247 86.5282 39.626V43H84.8482ZM93.5522 43.168C92.8802 43.168 92.2736 43.014 91.7322 42.706C91.2002 42.3887 90.7802 41.9547 90.4722 41.404C90.1736 40.844 90.0242 40.2047 90.0242 39.486C90.0242 38.7487 90.1782 38.1047 90.4862 37.554C90.7942 36.994 91.2142 36.56 91.7462 36.252C92.2876 35.9347 92.8942 35.776 93.5662 35.776C94.2382 35.776 94.8402 35.9347 95.3722 36.252C95.9136 36.56 96.3336 36.9893 96.6322 37.54C96.9402 38.0907 97.0942 38.7347 97.0942 39.472C97.0942 40.2093 96.9402 40.8533 96.6322 41.404C96.3242 41.9547 95.8996 42.3887 95.3582 42.706C94.8262 43.014 94.2242 43.168 93.5522 43.168ZM93.5522 41.726C93.8882 41.726 94.1916 41.642 94.4622 41.474C94.7422 41.306 94.9662 41.054 95.1342 40.718C95.3022 40.382 95.3862 39.9667 95.3862 39.472C95.3862 38.9773 95.3022 38.5667 95.1342 38.24C94.9756 37.904 94.7562 37.652 94.4762 37.484C94.2056 37.316 93.9022 37.232 93.5662 37.232C93.2396 37.232 92.9362 37.316 92.6562 37.484C92.3762 37.652 92.1522 37.904 91.9842 38.24C91.8162 38.5667 91.7322 38.9773 91.7322 39.472C91.7322 39.9667 91.8162 40.382 91.9842 40.718C92.1522 41.054 92.3716 41.306 92.6422 41.474C92.9222 41.642 93.2256 41.726 93.5522 41.726ZM98.7388 43V35.944H100.223L100.363 36.91C100.587 36.5553 100.881 36.28 101.245 36.084C101.618 35.8787 102.043 35.776 102.519 35.776C102.873 35.776 103.191 35.8227 103.471 35.916C103.76 36.0093 104.012 36.1493 104.227 36.336C104.451 36.5227 104.633 36.756 104.773 37.036C105.034 36.644 105.375 36.336 105.795 36.112C106.215 35.888 106.672 35.776 107.167 35.776C107.755 35.776 108.254 35.8973 108.665 36.14C109.075 36.3733 109.388 36.7233 109.603 37.19C109.817 37.6473 109.925 38.212 109.925 38.884V43H108.259V39.052C108.259 38.4547 108.137 37.9973 107.895 37.68C107.652 37.3627 107.293 37.204 106.817 37.204C106.49 37.204 106.201 37.2833 105.949 37.442C105.706 37.6007 105.515 37.834 105.375 38.142C105.235 38.4407 105.165 38.8093 105.165 39.248V43H103.499V39.052C103.499 38.4547 103.377 37.9973 103.135 37.68C102.892 37.3627 102.528 37.204 102.043 37.204C101.735 37.204 101.455 37.2833 101.203 37.442C100.96 37.6007 100.769 37.834 100.629 38.142C100.489 38.4407 100.419 38.8093 100.419 39.248V43H98.7388ZM115.004 43.168C114.304 43.168 113.688 43.0187 113.156 42.72C112.624 42.412 112.208 41.9827 111.91 41.432C111.611 40.8813 111.462 40.2467 111.462 39.528C111.462 38.7813 111.606 38.128 111.896 37.568C112.194 37.008 112.61 36.5693 113.142 36.252C113.683 35.9347 114.308 35.776 115.018 35.776C115.708 35.776 116.31 35.93 116.824 36.238C117.337 36.546 117.734 36.9613 118.014 37.484C118.294 37.9973 118.434 38.576 118.434 39.22C118.434 39.3133 118.434 39.416 118.434 39.528C118.434 39.64 118.424 39.7567 118.406 39.878H112.666V38.8H116.74C116.721 38.2867 116.548 37.8853 116.222 37.596C115.895 37.2973 115.489 37.148 115.004 37.148C114.658 37.148 114.341 37.2273 114.052 37.386C113.762 37.5447 113.534 37.7827 113.366 38.1C113.198 38.408 113.114 38.8 113.114 39.276V39.682C113.114 40.1207 113.193 40.4987 113.352 40.816C113.52 41.1333 113.744 41.376 114.024 41.544C114.313 41.7027 114.635 41.782 114.99 41.782C115.382 41.782 115.704 41.698 115.956 41.53C116.217 41.362 116.408 41.138 116.53 40.858H118.238C118.107 41.2967 117.892 41.6933 117.594 42.048C117.295 42.3933 116.926 42.6687 116.488 42.874C116.049 43.07 115.554 43.168 115.004 43.168ZM123.459 43V33.2H129.787V34.558H125.139V37.372H129.367V38.702H125.139V41.642H129.787V43H123.459ZM130.839 43L133.331 39.472L130.839 35.944H132.645L134.409 38.506L136.173 35.944H137.979L135.487 39.472L137.979 43H136.173L134.409 40.438L132.645 43H130.839ZM142.246 43C141.77 43 141.355 42.9253 141 42.776C140.655 42.6267 140.384 42.3793 140.188 42.034C139.992 41.6887 139.894 41.222 139.894 40.634V37.358H138.69V35.944H139.894L140.09 34.082H141.574V35.944H143.492V37.358H141.574V40.634C141.574 40.9887 141.649 41.236 141.798 41.376C141.957 41.5067 142.218 41.572 142.582 41.572H143.45V43H142.246ZM148.199 43.168C147.499 43.168 146.883 43.0187 146.351 42.72C145.819 42.412 145.404 41.9827 145.105 41.432C144.806 40.8813 144.657 40.2467 144.657 39.528C144.657 38.7813 144.802 38.128 145.091 37.568C145.39 37.008 145.805 36.5693 146.337 36.252C146.878 35.9347 147.504 35.776 148.213 35.776C148.904 35.776 149.506 35.93 150.019 36.238C150.532 36.546 150.929 36.9613 151.209 37.484C151.489 37.9973 151.629 38.576 151.629 39.22C151.629 39.3133 151.629 39.416 151.629 39.528C151.629 39.64 151.62 39.7567 151.601 39.878H145.861V38.8H149.935C149.916 38.2867 149.744 37.8853 149.417 37.596C149.09 37.2973 148.684 37.148 148.199 37.148C147.854 37.148 147.536 37.2273 147.247 37.386C146.958 37.5447 146.729 37.7827 146.561 38.1C146.393 38.408 146.309 38.8 146.309 39.276V39.682C146.309 40.1207 146.388 40.4987 146.547 40.816C146.715 41.1333 146.939 41.376 147.219 41.544C147.508 41.7027 147.83 41.782 148.185 41.782C148.577 41.782 148.899 41.698 149.151 41.53C149.412 41.362 149.604 41.138 149.725 40.858H151.433C151.302 41.2967 151.088 41.6933 150.789 42.048C150.49 42.3933 150.122 42.6687 149.683 42.874C149.244 43.07 148.75 43.168 148.199 43.168ZM153.18 43V35.944H154.664L154.79 37.12C155.005 36.7093 155.313 36.3827 155.714 36.14C156.116 35.8973 156.592 35.776 157.142 35.776C157.712 35.776 158.197 35.8973 158.598 36.14C159 36.3733 159.308 36.7187 159.522 37.176C159.746 37.6333 159.858 38.2027 159.858 38.884V43H158.178V39.038C158.178 38.45 158.048 37.9973 157.786 37.68C157.525 37.3627 157.138 37.204 156.624 37.204C156.288 37.204 155.985 37.2833 155.714 37.442C155.453 37.6007 155.243 37.834 155.084 38.142C154.935 38.4407 154.86 38.8047 154.86 39.234V43H153.18ZM164.443 43.168C163.818 43.168 163.272 43.07 162.805 42.874C162.348 42.6687 161.984 42.3887 161.713 42.034C161.452 41.67 161.298 41.2547 161.251 40.788H162.931C162.978 40.984 163.062 41.166 163.183 41.334C163.305 41.4927 163.468 41.6187 163.673 41.712C163.888 41.8053 164.14 41.852 164.429 41.852C164.709 41.852 164.938 41.8147 165.115 41.74C165.293 41.656 165.423 41.5487 165.507 41.418C165.591 41.2873 165.633 41.1473 165.633 40.998C165.633 40.774 165.573 40.6013 165.451 40.48C165.33 40.3587 165.153 40.2653 164.919 40.2C164.695 40.1253 164.425 40.0553 164.107 39.99C163.771 39.9247 163.445 39.8453 163.127 39.752C162.819 39.6493 162.539 39.5233 162.287 39.374C162.045 39.2247 161.849 39.0333 161.699 38.8C161.559 38.5667 161.489 38.282 161.489 37.946C161.489 37.5353 161.597 37.1667 161.811 36.84C162.035 36.5133 162.353 36.2567 162.763 36.07C163.183 35.874 163.683 35.776 164.261 35.776C165.083 35.776 165.736 35.9673 166.221 36.35C166.716 36.7233 167.005 37.2507 167.089 37.932H165.493C165.447 37.6707 165.316 37.47 165.101 37.33C164.887 37.1807 164.602 37.106 164.247 37.106C163.883 37.106 163.603 37.176 163.407 37.316C163.221 37.4467 163.127 37.624 163.127 37.848C163.127 37.988 163.183 38.1187 163.295 38.24C163.417 38.352 163.589 38.45 163.813 38.534C164.037 38.6087 164.313 38.6833 164.639 38.758C165.162 38.8607 165.624 38.982 166.025 39.122C166.427 39.262 166.744 39.4673 166.977 39.738C167.211 40.0087 167.327 40.3913 167.327 40.886C167.337 41.334 167.22 41.7307 166.977 42.076C166.744 42.4213 166.413 42.692 165.983 42.888C165.554 43.0747 165.041 43.168 164.443 43.168ZM169.028 43V35.944H170.708V43H169.028ZM169.868 34.824C169.56 34.824 169.303 34.7307 169.098 34.544C168.902 34.348 168.804 34.11 168.804 33.83C168.804 33.5407 168.902 33.3073 169.098 33.13C169.303 32.9433 169.56 32.85 169.868 32.85C170.176 32.85 170.428 32.9433 170.624 33.13C170.829 33.3073 170.932 33.5407 170.932 33.83C170.932 34.11 170.829 34.348 170.624 34.544C170.428 34.7307 170.176 34.824 169.868 34.824ZM175.939 43.168C175.267 43.168 174.66 43.014 174.119 42.706C173.587 42.3887 173.167 41.9547 172.859 41.404C172.56 40.844 172.411 40.2047 172.411 39.486C172.411 38.7487 172.565 38.1047 172.873 37.554C173.181 36.994 173.601 36.56 174.133 36.252C174.674 35.9347 175.281 35.776 175.953 35.776C176.625 35.776 177.227 35.9347 177.759 36.252C178.3 36.56 178.72 36.9893 179.019 37.54C179.327 38.0907 179.481 38.7347 179.481 39.472C179.481 40.2093 179.327 40.8533 179.019 41.404C178.711 41.9547 178.286 42.3887 177.745 42.706C177.213 43.014 176.611 43.168 175.939 43.168ZM175.939 41.726C176.275 41.726 176.578 41.642 176.849 41.474C177.129 41.306 177.353 41.054 177.521 40.718C177.689 40.382 177.773 39.9667 177.773 39.472C177.773 38.9773 177.689 38.5667 177.521 38.24C177.362 37.904 177.143 37.652 176.863 37.484C176.592 37.316 176.289 37.232 175.953 37.232C175.626 37.232 175.323 37.316 175.043 37.484C174.763 37.652 174.539 37.904 174.371 38.24C174.203 38.5667 174.119 38.9773 174.119 39.472C174.119 39.9667 174.203 40.382 174.371 40.718C174.539 41.054 174.758 41.306 175.029 41.474C175.309 41.642 175.612 41.726 175.939 41.726ZM181.126 43V35.944H182.61L182.736 37.12C182.95 36.7093 183.258 36.3827 183.66 36.14C184.061 35.8973 184.537 35.776 185.088 35.776C185.657 35.776 186.142 35.8973 186.544 36.14C186.945 36.3733 187.253 36.7187 187.468 37.176C187.692 37.6333 187.804 38.2027 187.804 38.884V43H186.124V39.038C186.124 38.45 185.993 37.9973 185.732 37.68C185.47 37.3627 185.083 37.204 184.57 37.204C184.234 37.204 183.93 37.2833 183.66 37.442C183.398 37.6007 183.188 37.834 183.03 38.142C182.88 38.4407 182.806 38.8047 182.806 39.234V43H181.126Z" fill="white"/>
<defs>
<linearGradient id="paint0_linear_2078_3087" x1="16.6602" y1="22.5625" x2="48.699" y2="22.5625" gradientUnits="userSpaceOnUse">
<stop stop-color="#D93025"/>
<stop offset="1" stop-color="#EA4335"/>
</linearGradient>
<linearGradient id="paint1_linear_2078_3087" x1="30.1536" y1="47.7526" x2="46.1731" y2="20.0062" gradientUnits="userSpaceOnUse">
<stop stop-color="#FCC934"/>
<stop offset="1" stop-color="#FBBC04"/>
</linearGradient>
<linearGradient id="paint2_linear_2078_3087" x1="34.683" y1="46.8449" x2="18.6636" y2="19.0984" gradientUnits="userSpaceOnUse">
<stop stop-color="#1E8E3E"/>
<stop offset="1" stop-color="#34A853"/>
</linearGradient>
<clipPath id="clip0_2078_3087">
<rect width="37" height="37" fill="white" transform="translate(14.1797 11)"/>
</clipPath>
</defs>
</svg>
