<svg width="204" height="59" viewBox="0 0 204 59" fill="none" xmlns="http://www.w3.org/2000/svg">
  <path d="M196.396 1.18184C199.894 1.18184 202.74 3.96037 202.74 7.375V51.625C202.74 55.0396 199.894 57.8182 196.396 57.8182H7.55371C4.05634 57.8182 1.21048 55.0396 1.21048 51.625V7.375C1.21048 3.96037 4.05634 1.18184 7.55371 1.18184H196.396ZM196.396 7.56029e-07H7.55371C3.40106 7.56029e-07 0 3.32059 0 7.375V51.625C0 55.6794 3.40106 59 7.55371 59H196.396C200.549 59 203.95 55.6794 203.95 51.625V7.375C203.95 3.32059 200.549 7.56029e-07 196.396 7.56029e-07Z" fill="#1B1B1B"/>
  <path d="M71.6353 15.1095C71.6353 16.3411 71.2576 17.3275 70.5136 18.0632C69.6581 18.9353 68.5439 19.3741 67.1786 19.3741C65.8737 19.3741 64.7595 18.9279 63.8455 18.0484C62.9297 17.1561 62.4727 16.0609 62.4727 14.75C62.4727 13.4391 62.9297 12.3439 63.8455 11.4589C64.7595 10.572 65.8737 10.1259 67.1786 10.1259C67.8282 10.1259 68.4476 10.2568 69.0387 10.5001C69.6279 10.7454 70.1076 11.0772 70.455 11.4865L69.6657 12.2646C69.0595 11.5658 68.2342 11.221 67.1786 11.221C66.2268 11.221 65.4016 11.5455 64.701 12.2001C64.0079 12.8564 63.6605 13.7064 63.6605 14.75C63.6605 15.7935 64.0079 16.6509 64.701 17.3073C65.4016 17.9544 66.2268 18.2863 67.1786 18.2863C68.1889 18.2863 69.0387 17.9544 69.7091 17.2999C70.151 16.8666 70.4022 16.2692 70.4683 15.5059H67.1786V14.4402H71.5673C71.6202 14.6707 71.6353 14.8938 71.6353 15.1095Z" fill="white" stroke="white" stroke-width="0.16" stroke-miterlimit="10"/>
  <path d="M78.5981 11.4151H74.4756V14.2176H78.1921V15.2833H74.4756V18.0858H78.5981V19.1717H73.3086V10.3291H78.5981V11.4151Z" fill="white" stroke="white" stroke-width="0.16" stroke-miterlimit="10"/>
  <path d="M83.5121 19.1717H82.345V11.4151H79.8164V10.3291H86.0425V11.4151H83.5121V19.1717Z" fill="white" stroke="white" stroke-width="0.16" stroke-miterlimit="10"/>
  <path d="M90.5469 19.1717V10.3291H91.712V19.1717H90.5469Z" fill="white" stroke="white" stroke-width="0.16" stroke-miterlimit="10"/>
  <path d="M96.8792 19.1717H95.7216V11.4151H93.1836V10.3291H99.4173V11.4151H96.8792V19.1717Z" fill="white" stroke="white" stroke-width="0.16" stroke-miterlimit="10"/>
  <path d="M111.205 18.0338C110.312 18.928 109.205 19.3742 107.885 19.3742C106.558 19.3742 105.451 18.928 104.558 18.0338C103.666 17.1414 103.223 16.0463 103.223 14.7501C103.223 13.4539 103.666 12.3588 104.558 11.4664C105.451 10.5722 106.558 10.126 107.885 10.126C109.198 10.126 110.304 10.5722 111.197 11.4738C112.096 12.3735 112.54 13.4613 112.54 14.7501C112.54 16.0463 112.096 17.1414 111.205 18.0338ZM105.421 17.2926C106.093 17.9545 106.911 18.2864 107.885 18.2864C108.852 18.2864 109.677 17.9545 110.342 17.2926C111.012 16.6307 111.352 15.7808 111.352 14.7501C111.352 13.7194 111.012 12.8695 110.342 12.2076C109.677 11.5457 108.852 11.2138 107.885 11.2138C106.911 11.2138 106.093 11.5457 105.421 12.2076C104.75 12.8695 104.41 13.7194 104.41 14.7501C104.41 15.7808 104.75 16.6307 105.421 17.2926Z" fill="white" stroke="white" stroke-width="0.16" stroke-miterlimit="10"/>
  <path d="M114.176 19.1707V10.3281H115.592L119.996 17.2053H120.047L119.996 15.5054V10.3281H121.161V19.1707H119.945L115.333 11.9543H115.282L115.333 13.6616V19.1707H114.176Z" fill="white" stroke="white" stroke-width="0.16" stroke-miterlimit="10"/>
  <path d="M102.934 32.0853C99.3852 32.0853 96.4864 34.7218 96.4864 38.3596C96.4864 41.9678 99.3852 44.632 102.934 44.632C106.489 44.632 109.388 41.9678 109.388 38.3596C109.388 34.7218 106.489 32.0853 102.934 32.0853ZM102.934 42.1614C100.987 42.1614 99.3115 40.5923 99.3115 38.3596C99.3115 36.0973 100.987 34.5559 102.934 34.5559C104.88 34.5559 106.563 36.0973 106.563 38.3596C106.563 40.5923 104.88 42.1614 102.934 42.1614ZM88.8666 32.0853C85.3107 32.0853 82.4195 34.7218 82.4195 38.3596C82.4195 41.9678 85.3107 44.632 88.8666 44.632C92.4206 44.632 95.3137 41.9678 95.3137 38.3596C95.3137 34.7218 92.4206 32.0853 88.8666 32.0853ZM88.8666 42.1614C86.9178 42.1614 85.2371 40.5923 85.2371 38.3596C85.2371 36.0973 86.9178 34.5559 88.8666 34.5559C90.8136 34.5559 92.4886 36.0973 92.4886 38.3596C92.4886 40.5923 90.8136 42.1614 88.8666 42.1614ZM72.1276 34.0083V36.6744H78.6484C78.4576 38.1641 77.9478 39.2593 77.1659 40.0226C76.2142 40.9445 74.7318 41.9678 72.1276 41.9678C68.1147 41.9678 64.9724 38.8057 64.9724 34.8878C64.9724 30.9698 68.1147 27.8078 72.1276 27.8078C74.2974 27.8078 75.8762 28.6356 77.0413 29.7087L78.9656 27.8299C77.3359 26.3107 75.168 25.1436 72.1276 25.1436C66.6248 25.1436 62 29.5151 62 34.8878C62 40.2605 66.6248 44.632 72.1276 44.632C75.1019 44.632 77.3359 43.6806 79.0921 41.8959C80.8918 40.1388 81.4527 37.6682 81.4527 35.6732C81.4527 35.0537 81.3998 34.484 81.3054 34.0083H72.1276ZM140.576 36.0752C140.045 34.6721 138.408 32.0853 135.073 32.0853C131.768 32.0853 129.016 34.6278 129.016 38.3596C129.016 41.8737 131.74 44.632 135.39 44.632C138.341 44.632 140.045 42.8749 140.745 41.8516L138.555 40.4264C137.824 41.47 136.829 42.1614 135.39 42.1614C133.96 42.1614 132.935 41.5216 132.278 40.2605L140.872 36.7887L140.576 36.0752ZM131.813 38.1641C131.74 35.7451 133.738 34.5061 135.169 34.5061C136.291 34.5061 137.242 35.0537 137.56 35.8373L131.813 38.1641ZM124.828 44.2503H127.653V25.8128H124.828V44.2503ZM120.201 33.4828H120.107C119.472 32.749 118.262 32.0853 116.728 32.0853C113.511 32.0853 110.568 34.8435 110.568 38.3798C110.568 41.8959 113.511 44.632 116.728 44.632C118.262 44.632 119.472 43.9627 120.107 43.2068H120.201V44.1065C120.201 46.5052 118.889 47.794 116.772 47.794C115.046 47.794 113.975 46.5771 113.533 45.5539L111.076 46.555C111.785 48.2181 113.66 50.2646 116.772 50.2646C120.084 50.2646 122.879 48.3619 122.879 43.7322V32.4669H120.201V33.4828ZM116.97 42.1614C115.023 42.1614 113.393 40.5702 113.393 38.3798C113.393 36.1692 115.023 34.5559 116.97 34.5559C118.889 34.5559 120.401 36.1692 120.401 38.3798C120.401 40.5702 118.889 42.1614 116.97 42.1614ZM153.802 25.8128H147.045V44.2503H149.863V37.2644H153.802C156.931 37.2644 160 35.0537 160 31.5377C160 28.0235 156.924 25.8128 153.802 25.8128ZM153.876 34.6997H149.863V28.3775H153.876C155.979 28.3775 157.18 30.083 157.18 31.5377C157.18 32.9647 155.979 34.6997 153.876 34.6997ZM171.293 32.0502C169.257 32.0502 167.14 32.9279 166.269 34.873L168.77 35.8963C169.308 34.873 170.297 34.5412 171.344 34.5412C172.805 34.5412 174.288 35.3985 174.31 36.9122V37.1058C173.8 36.8182 172.709 36.3923 171.366 36.3923C168.673 36.3923 165.929 37.8396 165.929 40.5407C165.929 43.0113 168.135 44.6025 170.615 44.6025C172.511 44.6025 173.557 43.7673 174.214 42.7956H174.31V44.2208H177.032V37.1482C177.032 33.8792 174.531 32.0502 171.293 32.0502ZM170.953 42.154C170.031 42.154 168.747 41.7078 168.747 40.5923C168.747 39.1653 170.348 38.6177 171.735 38.6177C172.975 38.6177 173.557 38.885 174.31 39.2372C174.089 40.9445 172.584 42.154 170.953 42.154ZM186.946 32.454L183.707 40.4467H183.611L180.263 32.454H177.224L182.255 43.6235L179.385 49.8387H182.329L190.081 32.454H186.946ZM161.548 44.2503H164.373V25.8128H161.548V44.2503Z" fill="white"/>
  <path d="M15.7651 11.1197C15.3213 11.5732 15.0645 12.2794 15.0645 13.1939V45.8135C15.0645 46.728 15.3213 47.4342 15.7651 47.8877L15.8746 47.9873L34.5964 29.7157V29.2843L15.8746 11.0127L15.7651 11.1197Z" fill="url(#paint0_linear_2078_3061)"/>
  <path d="M40.8294 35.8093L34.5957 29.7157V29.2842L40.837 23.1906L40.9767 23.2699L48.368 27.376C50.4774 28.5412 50.4774 30.4587 48.368 31.6313L40.9767 35.73L40.8294 35.8093Z" fill="url(#paint1_linear_2078_3061)"/>
  <path d="M40.978 35.7304L34.597 29.5004L15.7656 47.8881C16.4662 48.6071 17.6087 48.6938 18.908 47.9747L40.978 35.7304Z" fill="url(#paint2_linear_2078_3061)"/>
  <path d="M40.976 23.27L18.906 11.0256C17.6068 10.3139 16.4643 10.4006 15.7637 11.1197L34.5951 29.5L40.976 23.27Z" fill="url(#paint3_linear_2078_3061)"/>
  <defs>
    <linearGradient id="paint0_linear_2078_3061" x1="32.9342" y1="46.1532" x2="8.18722" y2="20.8066" gradientUnits="userSpaceOnUse">
      <stop stop-color="#00A0FF"/>
      <stop offset="0.0066" stop-color="#00A1FF"/>
      <stop offset="0.2601" stop-color="#00BEFF"/>
      <stop offset="0.5122" stop-color="#00D2FF"/>
      <stop offset="0.7604" stop-color="#00DFFF"/>
      <stop offset="1" stop-color="#00E3FF"/>
    </linearGradient>
    <linearGradient id="paint1_linear_2078_3061" x1="51.1147" y1="29.4979" x2="14.5595" y2="29.4979" gradientUnits="userSpaceOnUse">
      <stop stop-color="#FFE000"/>
      <stop offset="0.4087" stop-color="#FFBD00"/>
      <stop offset="0.7754" stop-color="#FFA500"/>
      <stop offset="1" stop-color="#FF9C00"/>
    </linearGradient>
    <linearGradient id="paint2_linear_2078_3061" x1="37.5082" y1="26.1136" x2="3.94934" y2="-8.25843" gradientUnits="userSpaceOnUse">
      <stop stop-color="#FF3A44"/>
      <stop offset="1" stop-color="#C31162"/>
    </linearGradient>
    <linearGradient id="paint3_linear_2078_3061" x1="11.0234" y1="58.7401" x2="26.009" y2="43.3916" gradientUnits="userSpaceOnUse">
      <stop stop-color="#32A071"/>
      <stop offset="0.0685" stop-color="#2DA771"/>
      <stop offset="0.4762" stop-color="#15CF74"/>
      <stop offset="0.8009" stop-color="#06E775"/>
      <stop offset="1" stop-color="#00F076"/>
    </linearGradient>
  </defs>
</svg>